<mxfile host="app.diagrams.net" agent="Mozilla/5.0 (X11; Linux x86_64; Chromium GOST) AppleWebKit/537.36 (KHTML, like Gecko) Chrome/138.0.0.0 Safari/537.36" version="28.2.7">
  <diagram name="Страница — 1" id="tIaQ-fMS3q3bcoWdsxti">
    <mxGraphModel grid="1" page="1" gridSize="10" guides="1" tooltips="1" connect="1" arrows="1" fold="1" pageScale="1" pageWidth="827" pageHeight="1169" math="0" shadow="0">
      <root>
        <mxCell id="0" />
        <mxCell id="1" parent="0" />
        <mxCell id="HyqLLSG7Mpddw3mmOdJv-3" value="Администратор" style="shape=umlActor;verticalLabelPosition=bottom;verticalAlign=top;html=1;outlineConnect=0;" vertex="1" parent="1">
          <mxGeometry x="30" y="150" width="55" height="110" as="geometry" />
        </mxCell>
        <mxCell id="HyqLLSG7Mpddw3mmOdJv-5" value="Пользователь" style="shape=umlActor;verticalLabelPosition=bottom;verticalAlign=top;html=1;outlineConnect=0;" vertex="1" parent="1">
          <mxGeometry x="30" y="530" width="55" height="110" as="geometry" />
        </mxCell>
        <mxCell id="HyqLLSG7Mpddw3mmOdJv-12" value="Настройка прав доступа" style="ellipse;whiteSpace=wrap;html=1;" vertex="1" parent="1">
          <mxGeometry x="160" y="175" width="180" height="60" as="geometry" />
        </mxCell>
        <mxCell id="HyqLLSG7Mpddw3mmOdJv-14" value="&lt;span style=&quot;color: rgba(0, 0, 0, 0.9); font-family: -apple-system, BlinkMacSystemFont, Arial, Helvetica, &amp;quot;Arial Unicode MS&amp;quot;, sans-serif; font-size: 16px; text-align: left; background-color: rgb(255, 255, 255);&quot;&gt;Идентификация и аутентификация&lt;/span&gt;" style="ellipse;whiteSpace=wrap;html=1;" vertex="1" parent="1">
          <mxGeometry x="390" y="90" width="180" height="60" as="geometry" />
        </mxCell>
        <mxCell id="HyqLLSG7Mpddw3mmOdJv-15" value="&lt;div style=&quot;text-align: left;&quot;&gt;&lt;font face=&quot;-apple-system, BlinkMacSystemFont, Arial, Helvetica, Arial Unicode MS, sans-serif&quot; color=&quot;rgba(0, 0, 0, 0.9)&quot;&gt;&lt;span style=&quot;font-size: 16px; background-color: rgb(255, 255, 255);&quot;&gt;Назначение разрешений&lt;/span&gt;&lt;/font&gt;&lt;/div&gt;" style="ellipse;whiteSpace=wrap;html=1;" vertex="1" parent="1">
          <mxGeometry x="370" y="240" width="200" height="60" as="geometry" />
        </mxCell>
        <mxCell id="HyqLLSG7Mpddw3mmOdJv-16" value="&lt;div style=&quot;text-align: left;&quot;&gt;&lt;font face=&quot;-apple-system, BlinkMacSystemFont, Arial, Helvetica, Arial Unicode MS, sans-serif&quot; color=&quot;rgba(0, 0, 0, 0.9)&quot;&gt;&lt;span style=&quot;font-size: 16px; background-color: rgb(255, 255, 255);&quot;&gt;Определение ролей&lt;/span&gt;&lt;/font&gt;&lt;/div&gt;" style="ellipse;whiteSpace=wrap;html=1;" vertex="1" parent="1">
          <mxGeometry x="560" y="170" width="180" height="60" as="geometry" />
        </mxCell>
        <mxCell id="HyqLLSG7Mpddw3mmOdJv-17" value="" style="endArrow=classic;html=1;rounded=0;exitX=1;exitY=0.5;exitDx=0;exitDy=0;entryX=0.5;entryY=1;entryDx=0;entryDy=0;" edge="1" parent="1" source="HyqLLSG7Mpddw3mmOdJv-12" target="HyqLLSG7Mpddw3mmOdJv-14">
          <mxGeometry width="50" height="50" relative="1" as="geometry">
            <mxPoint x="330" y="420" as="sourcePoint" />
            <mxPoint x="380" y="370" as="targetPoint" />
          </mxGeometry>
        </mxCell>
        <mxCell id="HyqLLSG7Mpddw3mmOdJv-21" value="Включает" style="edgeLabel;html=1;align=center;verticalAlign=middle;resizable=0;points=[];" vertex="1" connectable="0" parent="HyqLLSG7Mpddw3mmOdJv-17">
          <mxGeometry x="0.0421" y="-3" relative="1" as="geometry">
            <mxPoint as="offset" />
          </mxGeometry>
        </mxCell>
        <mxCell id="HyqLLSG7Mpddw3mmOdJv-18" value="" style="endArrow=classic;html=1;rounded=0;exitX=1;exitY=0.5;exitDx=0;exitDy=0;entryX=0;entryY=0.5;entryDx=0;entryDy=0;" edge="1" parent="1" source="HyqLLSG7Mpddw3mmOdJv-12" target="HyqLLSG7Mpddw3mmOdJv-16">
          <mxGeometry width="50" height="50" relative="1" as="geometry">
            <mxPoint x="330" y="420" as="sourcePoint" />
            <mxPoint x="380" y="370" as="targetPoint" />
          </mxGeometry>
        </mxCell>
        <mxCell id="HyqLLSG7Mpddw3mmOdJv-23" value="Включает" style="edgeLabel;html=1;align=center;verticalAlign=middle;resizable=0;points=[];" vertex="1" connectable="0" parent="HyqLLSG7Mpddw3mmOdJv-18">
          <mxGeometry x="0.2501" y="1" relative="1" as="geometry">
            <mxPoint as="offset" />
          </mxGeometry>
        </mxCell>
        <mxCell id="HyqLLSG7Mpddw3mmOdJv-19" value="" style="endArrow=classic;html=1;rounded=0;exitX=1;exitY=0.5;exitDx=0;exitDy=0;entryX=0.5;entryY=0;entryDx=0;entryDy=0;" edge="1" parent="1" source="HyqLLSG7Mpddw3mmOdJv-12" target="HyqLLSG7Mpddw3mmOdJv-15">
          <mxGeometry width="50" height="50" relative="1" as="geometry">
            <mxPoint x="330" y="420" as="sourcePoint" />
            <mxPoint x="380" y="370" as="targetPoint" />
          </mxGeometry>
        </mxCell>
        <mxCell id="HyqLLSG7Mpddw3mmOdJv-24" value="Включает" style="edgeLabel;html=1;align=center;verticalAlign=middle;resizable=0;points=[];" vertex="1" connectable="0" parent="HyqLLSG7Mpddw3mmOdJv-19">
          <mxGeometry x="-0.0918" y="-1" relative="1" as="geometry">
            <mxPoint as="offset" />
          </mxGeometry>
        </mxCell>
        <mxCell id="HyqLLSG7Mpddw3mmOdJv-25" value="&lt;div style=&quot;text-align: left;&quot;&gt;&lt;font face=&quot;-apple-system, BlinkMacSystemFont, Arial, Helvetica, Arial Unicode MS, sans-serif&quot; color=&quot;rgba(0, 0, 0, 0.9)&quot;&gt;&lt;span style=&quot;font-size: 16px; background-color: rgb(255, 255, 255);&quot;&gt;Оставить заявку&lt;/span&gt;&lt;/font&gt;&lt;/div&gt;" style="ellipse;whiteSpace=wrap;html=1;" vertex="1" parent="1">
          <mxGeometry x="350" y="490" width="200" height="60" as="geometry" />
        </mxCell>
        <mxCell id="HyqLLSG7Mpddw3mmOdJv-26" value="&lt;div style=&quot;&quot;&gt;&lt;span style=&quot;color: rgba(0, 0, 0, 0.9); font-family: -apple-system, BlinkMacSystemFont, Arial, Helvetica, &amp;quot;Arial Unicode MS&amp;quot;, sans-serif; font-size: 16px; background-color: rgb(255, 255, 255);&quot;&gt;Получить уведомление о расхождениях&lt;/span&gt;&lt;/div&gt;" style="ellipse;whiteSpace=wrap;html=1;align=center;" vertex="1" parent="1">
          <mxGeometry x="190" y="710" width="200" height="60" as="geometry" />
        </mxCell>
        <mxCell id="HyqLLSG7Mpddw3mmOdJv-27" value="&lt;div style=&quot;&quot;&gt;Получить отчет&lt;/div&gt;" style="ellipse;whiteSpace=wrap;html=1;align=center;" vertex="1" parent="1">
          <mxGeometry x="350" y="600" width="200" height="60" as="geometry" />
        </mxCell>
        <mxCell id="HyqLLSG7Mpddw3mmOdJv-28" value="&lt;div style=&quot;&quot;&gt;&lt;font face=&quot;-apple-system, BlinkMacSystemFont, Arial, Helvetica, Arial Unicode MS, sans-serif&quot; color=&quot;rgba(0, 0, 0, 0.9)&quot;&gt;&lt;span style=&quot;font-size: 16px; background-color: rgb(255, 255, 255);&quot;&gt;Подтвердить выполнение операции&lt;/span&gt;&lt;/font&gt;&lt;/div&gt;" style="ellipse;whiteSpace=wrap;html=1;align=center;" vertex="1" parent="1">
          <mxGeometry x="350" y="810" width="200" height="60" as="geometry" />
        </mxCell>
        <mxCell id="HyqLLSG7Mpddw3mmOdJv-29" value="&lt;div style=&quot;text-align: left;&quot;&gt;&lt;font face=&quot;-apple-system, BlinkMacSystemFont, Arial, Helvetica, Arial Unicode MS, sans-serif&quot; color=&quot;rgba(0, 0, 0, 0.9)&quot;&gt;&lt;span style=&quot;font-size: 16px; background-color: rgb(255, 255, 255);&quot;&gt;Запросить остатки&lt;/span&gt;&lt;/font&gt;&lt;/div&gt;" style="ellipse;whiteSpace=wrap;html=1;" vertex="1" parent="1">
          <mxGeometry x="500" y="700" width="200" height="60" as="geometry" />
        </mxCell>
        <mxCell id="HyqLLSG7Mpddw3mmOdJv-30" value="" style="endArrow=classic;html=1;rounded=0;entryX=0;entryY=1;entryDx=0;entryDy=0;" edge="1" parent="1" target="HyqLLSG7Mpddw3mmOdJv-25">
          <mxGeometry width="50" height="50" relative="1" as="geometry">
            <mxPoint x="90" y="580" as="sourcePoint" />
            <mxPoint x="380" y="640" as="targetPoint" />
          </mxGeometry>
        </mxCell>
        <mxCell id="HyqLLSG7Mpddw3mmOdJv-31" value="" style="endArrow=classic;html=1;rounded=0;entryX=0;entryY=0.5;entryDx=0;entryDy=0;" edge="1" parent="1" source="HyqLLSG7Mpddw3mmOdJv-5" target="HyqLLSG7Mpddw3mmOdJv-27">
          <mxGeometry width="50" height="50" relative="1" as="geometry">
            <mxPoint x="330" y="690" as="sourcePoint" />
            <mxPoint x="380" y="640" as="targetPoint" />
          </mxGeometry>
        </mxCell>
        <mxCell id="HyqLLSG7Mpddw3mmOdJv-33" value="" style="endArrow=classic;html=1;rounded=0;exitX=0.5;exitY=1;exitDx=0;exitDy=0;entryX=0.5;entryY=0;entryDx=0;entryDy=0;" edge="1" parent="1" source="HyqLLSG7Mpddw3mmOdJv-27" target="HyqLLSG7Mpddw3mmOdJv-26">
          <mxGeometry width="50" height="50" relative="1" as="geometry">
            <mxPoint x="330" y="690" as="sourcePoint" />
            <mxPoint x="380" y="640" as="targetPoint" />
          </mxGeometry>
        </mxCell>
        <mxCell id="HyqLLSG7Mpddw3mmOdJv-36" value="Включает" style="edgeLabel;html=1;align=center;verticalAlign=middle;resizable=0;points=[];" vertex="1" connectable="0" parent="HyqLLSG7Mpddw3mmOdJv-33">
          <mxGeometry x="-0.008" y="-1" relative="1" as="geometry">
            <mxPoint as="offset" />
          </mxGeometry>
        </mxCell>
        <mxCell id="HyqLLSG7Mpddw3mmOdJv-34" value="" style="endArrow=classic;html=1;rounded=0;exitX=0.5;exitY=1;exitDx=0;exitDy=0;entryX=0.5;entryY=0;entryDx=0;entryDy=0;" edge="1" parent="1" source="HyqLLSG7Mpddw3mmOdJv-27" target="HyqLLSG7Mpddw3mmOdJv-28">
          <mxGeometry width="50" height="50" relative="1" as="geometry">
            <mxPoint x="330" y="690" as="sourcePoint" />
            <mxPoint x="380" y="640" as="targetPoint" />
          </mxGeometry>
        </mxCell>
        <mxCell id="HyqLLSG7Mpddw3mmOdJv-37" value="Включает" style="edgeLabel;html=1;align=center;verticalAlign=middle;resizable=0;points=[];" vertex="1" connectable="0" parent="HyqLLSG7Mpddw3mmOdJv-34">
          <mxGeometry x="-0.0173" relative="1" as="geometry">
            <mxPoint as="offset" />
          </mxGeometry>
        </mxCell>
        <mxCell id="HyqLLSG7Mpddw3mmOdJv-35" value="" style="endArrow=classic;html=1;rounded=0;exitX=0.5;exitY=1;exitDx=0;exitDy=0;entryX=0.5;entryY=0;entryDx=0;entryDy=0;" edge="1" parent="1" source="HyqLLSG7Mpddw3mmOdJv-27" target="HyqLLSG7Mpddw3mmOdJv-29">
          <mxGeometry width="50" height="50" relative="1" as="geometry">
            <mxPoint x="330" y="690" as="sourcePoint" />
            <mxPoint x="380" y="640" as="targetPoint" />
          </mxGeometry>
        </mxCell>
        <mxCell id="HyqLLSG7Mpddw3mmOdJv-38" value="Включает" style="edgeLabel;html=1;align=center;verticalAlign=middle;resizable=0;points=[];" vertex="1" connectable="0" parent="HyqLLSG7Mpddw3mmOdJv-35">
          <mxGeometry x="0.0434" y="-3" relative="1" as="geometry">
            <mxPoint y="-1" as="offset" />
          </mxGeometry>
        </mxCell>
        <mxCell id="HyqLLSG7Mpddw3mmOdJv-39" value="&lt;div style=&quot;text-align: left;&quot;&gt;&lt;font face=&quot;-apple-system, BlinkMacSystemFont, Arial, Helvetica, Arial Unicode MS, sans-serif&quot; color=&quot;rgba(0, 0, 0, 0.9)&quot;&gt;&lt;span style=&quot;font-size: 16px; background-color: rgb(255, 255, 255);&quot;&gt;Поставка&lt;/span&gt;&lt;/font&gt;&lt;/div&gt;" style="ellipse;whiteSpace=wrap;html=1;" vertex="1" parent="1">
          <mxGeometry x="460" y="380" width="200" height="60" as="geometry" />
        </mxCell>
        <mxCell id="HyqLLSG7Mpddw3mmOdJv-40" value="&lt;font style=&quot;color: rgb(0, 0, 0);&quot; face=&quot;-apple-system, BlinkMacSystemFont, Arial, Helvetica, Arial Unicode MS, sans-serif&quot;&gt;&lt;span style=&quot;font-size: 16px; background-color: rgb(255, 255, 255);&quot;&gt;Отгрузка&lt;/span&gt;&lt;/font&gt;" style="ellipse;whiteSpace=wrap;html=1;" vertex="1" parent="1">
          <mxGeometry x="230" y="380" width="200" height="60" as="geometry" />
        </mxCell>
        <mxCell id="F0ZwqaO8ecnjVOgW2gC_-1" value="" style="endArrow=classic;html=1;rounded=0;exitX=0.5;exitY=0;exitDx=0;exitDy=0;entryX=0.5;entryY=1;entryDx=0;entryDy=0;" edge="1" parent="1" source="HyqLLSG7Mpddw3mmOdJv-25" target="HyqLLSG7Mpddw3mmOdJv-40">
          <mxGeometry width="50" height="50" relative="1" as="geometry">
            <mxPoint x="330" y="690" as="sourcePoint" />
            <mxPoint x="50" y="390" as="targetPoint" />
          </mxGeometry>
        </mxCell>
        <mxCell id="F0ZwqaO8ecnjVOgW2gC_-3" value="Включает" style="edgeLabel;html=1;align=center;verticalAlign=middle;resizable=0;points=[];" connectable="0" vertex="1" parent="F0ZwqaO8ecnjVOgW2gC_-1">
          <mxGeometry x="-0.0634" y="-1" relative="1" as="geometry">
            <mxPoint as="offset" />
          </mxGeometry>
        </mxCell>
        <mxCell id="F0ZwqaO8ecnjVOgW2gC_-2" value="" style="endArrow=classic;html=1;rounded=0;exitX=0.5;exitY=0;exitDx=0;exitDy=0;entryX=0.5;entryY=1;entryDx=0;entryDy=0;" edge="1" parent="1" source="HyqLLSG7Mpddw3mmOdJv-25" target="HyqLLSG7Mpddw3mmOdJv-39">
          <mxGeometry width="50" height="50" relative="1" as="geometry">
            <mxPoint x="330" y="690" as="sourcePoint" />
            <mxPoint x="380" y="640" as="targetPoint" />
          </mxGeometry>
        </mxCell>
        <mxCell id="F0ZwqaO8ecnjVOgW2gC_-4" value="Включает" style="edgeLabel;html=1;align=center;verticalAlign=middle;resizable=0;points=[];" connectable="0" vertex="1" parent="F0ZwqaO8ecnjVOgW2gC_-2">
          <mxGeometry x="-0.0583" y="1" relative="1" as="geometry">
            <mxPoint as="offset" />
          </mxGeometry>
        </mxCell>
        <mxCell id="F0ZwqaO8ecnjVOgW2gC_-5" value="" style="endArrow=classic;html=1;rounded=0;exitX=0.5;exitY=0.5;exitDx=0;exitDy=0;exitPerimeter=0;entryX=0;entryY=0.5;entryDx=0;entryDy=0;" edge="1" parent="1" source="HyqLLSG7Mpddw3mmOdJv-3" target="HyqLLSG7Mpddw3mmOdJv-12">
          <mxGeometry width="50" height="50" relative="1" as="geometry">
            <mxPoint x="330" y="550" as="sourcePoint" />
            <mxPoint x="380" y="500" as="targetPoint" />
          </mxGeometry>
        </mxCell>
        <mxCell id="F0ZwqaO8ecnjVOgW2gC_-12" value="" style="endArrow=none;html=1;rounded=0;" edge="1" parent="1">
          <mxGeometry width="50" height="50" relative="1" as="geometry">
            <mxPoint x="120" y="920" as="sourcePoint" />
            <mxPoint x="120" y="80" as="targetPoint" />
          </mxGeometry>
        </mxCell>
        <mxCell id="F0ZwqaO8ecnjVOgW2gC_-13" value="" style="endArrow=none;html=1;rounded=0;" edge="1" parent="1">
          <mxGeometry width="50" height="50" relative="1" as="geometry">
            <mxPoint x="120" y="80" as="sourcePoint" />
            <mxPoint x="760" y="80" as="targetPoint" />
          </mxGeometry>
        </mxCell>
        <mxCell id="F0ZwqaO8ecnjVOgW2gC_-14" value="" style="endArrow=none;html=1;rounded=0;" edge="1" parent="1">
          <mxGeometry width="50" height="50" relative="1" as="geometry">
            <mxPoint x="760" y="920" as="sourcePoint" />
            <mxPoint x="760" y="80" as="targetPoint" />
          </mxGeometry>
        </mxCell>
        <mxCell id="F0ZwqaO8ecnjVOgW2gC_-15" value="" style="endArrow=none;html=1;rounded=0;" edge="1" parent="1">
          <mxGeometry width="50" height="50" relative="1" as="geometry">
            <mxPoint x="120" y="920" as="sourcePoint" />
            <mxPoint x="760" y="920" as="targetPoint" />
          </mxGeometry>
        </mxCell>
      </root>
    </mxGraphModel>
  </diagram>
</mxfile>
